<svg width="21" height="19" viewBox="0 0 21 19" fill="none" xmlns="http://www.w3.org/2000/svg">
<path fill-rule="evenodd" clip-rule="evenodd" d="M5.5521 2.68875V4.16853L3.78759 4.31096C2.54 4.41167 1.52233 5.35101 1.32223 6.58655C1.27875 6.85509 1.2392 7.12407 1.2036 7.39346C1.18593 7.52719 1.25721 7.65656 1.37909 7.71427L1.45935 7.75229C7.11425 10.4298 13.8857 10.4298 19.5406 7.75229L19.621 7.71427C19.7428 7.65656 19.8141 7.52719 19.7964 7.39347C19.7608 7.12409 19.7213 6.85509 19.6778 6.58655C19.4777 5.35101 18.46 4.41167 17.2124 4.31096L15.4479 4.16853V2.68875C15.4479 1.78641 14.7878 1.01986 13.8954 0.886002L12.6247 0.695387C11.2162 0.484106 9.78387 0.484106 8.37535 0.695387L7.1046 0.886002C6.21224 1.01986 5.5521 1.78641 5.5521 2.68875ZM12.3929 2.24061C11.138 2.05237 9.86199 2.05237 8.6071 2.24061L7.33638 2.43121C7.2089 2.45034 7.1146 2.55985 7.1146 2.68875V4.05855C9.3697 3.92937 11.6303 3.92937 13.8854 4.05855V2.68875C13.8854 2.55985 13.7912 2.45034 13.6637 2.43121L12.3929 2.24061Z" fill="white"/>
<path d="M19.9982 9.57386C19.9904 9.42792 19.8377 9.33667 19.7041 9.39584C13.901 11.9653 7.09901 11.9653 1.29597 9.39584C1.16233 9.33667 1.00954 9.42792 1.00176 9.57386C0.895744 11.5649 1.00258 13.5645 1.32223 15.5384C1.52233 16.774 2.54 17.7133 3.78759 17.8141L5.7375 17.9715C8.90731 18.2273 12.0926 18.2273 15.2625 17.9715L17.2124 17.8141C18.46 17.7133 19.4777 16.774 19.6778 15.5384C19.9974 13.5645 20.1043 11.5649 19.9982 9.57386Z" fill="white"/>
</svg>
