<svg width="23" height="23" viewBox="0 0 23 23" fill="none" xmlns="http://www.w3.org/2000/svg">
<path d="M11.5 0.302124C11.9315 0.302124 12.2812 0.651905 12.2812 1.08337V2.12504C12.2812 2.55651 11.9315 2.90629 11.5 2.90629C11.0685 2.90629 10.7188 2.55651 10.7188 2.12504V1.08337C10.7188 0.651905 11.0685 0.302124 11.5 0.302124Z" fill="#7D96B3"/>
<path d="M11.5 5.51044C8.19206 5.51044 5.51044 8.19206 5.51044 11.5C5.51044 14.8079 8.19206 17.4896 11.5 17.4896C14.8079 17.4896 17.4896 14.8079 17.4896 11.5C17.4896 8.19206 14.8079 5.51044 11.5 5.51044Z" fill="#7D96B3"/>
<path d="M4.68677 3.58191C4.38167 3.27681 3.88701 3.27681 3.58192 3.58191C3.27681 3.88701 3.27681 4.38167 3.58192 4.68677L4.31848 5.42334C4.62358 5.72844 5.11824 5.72844 5.42333 5.42334C5.72844 5.11824 5.72844 4.62358 5.42333 4.31848L4.68677 3.58191Z" fill="#7D96B3"/>
<path d="M22.6979 11.5001C22.6979 11.9315 22.3481 12.2813 21.9167 12.2813H20.875C20.4435 12.2813 20.0938 11.9315 20.0938 11.5001C20.0938 11.0686 20.4435 10.7188 20.875 10.7188H21.9167C22.3481 10.7188 22.6979 11.0686 22.6979 11.5001Z" fill="#7D96B3"/>
<path d="M19.4181 4.68677C19.7232 4.38167 19.7232 3.88701 19.4181 3.58192C19.113 3.27681 18.6183 3.27681 18.3132 3.58192L17.5767 4.31848C17.2716 4.62358 17.2716 5.11824 17.5767 5.42333C17.8818 5.72844 18.3765 5.72844 18.6816 5.42333L19.4181 4.68677Z" fill="#7D96B3"/>
<path d="M11.5 20.0938C11.9315 20.0938 12.2812 20.4436 12.2812 20.8751V21.9167C12.2812 22.3482 11.9315 22.698 11.5 22.698C11.0685 22.698 10.7188 22.3482 10.7188 21.9167V20.8751C10.7188 20.4436 11.0685 20.0938 11.5 20.0938Z" fill="#7D96B3"/>
<path d="M18.6816 17.5767C18.3765 17.2716 17.8819 17.2716 17.5768 17.5767C17.2717 17.8818 17.2717 18.3765 17.5768 18.6816L18.3134 19.4182C18.6185 19.7233 19.113 19.7233 19.4181 19.4182C19.7232 19.1131 19.7232 18.6184 19.4181 18.3133L18.6816 17.5767Z" fill="#7D96B3"/>
<path d="M2.90626 11.5001C2.90626 11.9315 2.55648 12.2813 2.12501 12.2813H1.08334C0.651875 12.2813 0.302094 11.9315 0.302094 11.5001C0.302094 11.0686 0.651875 10.7188 1.08334 10.7188H2.12501C2.55648 10.7188 2.90626 11.0686 2.90626 11.5001Z" fill="#7D96B3"/>
<path d="M5.42327 18.6816C5.72837 18.3765 5.72837 17.8818 5.42327 17.5767C5.11817 17.2716 4.62351 17.2716 4.31842 17.5767L3.58185 18.3133C3.27675 18.6184 3.27675 19.1131 3.58185 19.4182C3.88694 19.7233 4.38161 19.7233 4.6867 19.4182L5.42327 18.6816Z" fill="#7D96B3"/>
</svg>
