<svg width="17" height="19" viewBox="0 0 17 19" fill="none" xmlns="http://www.w3.org/2000/svg">
<path fill-rule="evenodd" clip-rule="evenodd" d="M1.20834 13.9271C1.63981 13.9271 1.98959 14.2769 1.98959 14.7083V16.7916C1.98959 16.9355 2.10619 17.0521 2.25001 17.0521H14.75C14.8939 17.0521 15.0104 16.9355 15.0104 16.7916V14.7083C15.0104 14.2769 15.3602 13.9271 15.7917 13.9271C16.2231 13.9271 16.5729 14.2769 16.5729 14.7083V16.7916C16.5729 17.7984 15.7568 18.6146 14.75 18.6146H2.25001C1.24324 18.6146 0.427094 17.7984 0.427094 16.7916V14.7083C0.427094 14.2769 0.776875 13.9271 1.20834 13.9271Z" fill="#067AFF"/>
<path fill-rule="evenodd" clip-rule="evenodd" d="M7.18532 13.7993C6.64949 13.7993 6.20249 13.3898 6.1557 12.8559C5.99565 11.0302 5.96743 9.19553 6.07114 7.3661C5.81387 7.35188 5.55671 7.3354 5.29964 7.31667L3.74803 7.20356C3.1498 7.15995 2.81538 6.49291 3.13835 5.98746C4.24465 4.25613 5.67014 2.75099 7.33886 1.55231L7.96053 1.10576C8.28293 0.874172 8.71709 0.874172 9.03949 1.10576L9.66115 1.55231C11.3298 2.75099 12.7553 4.25612 13.8617 5.98746C14.1846 6.49291 13.8502 7.15995 13.252 7.20356L11.7003 7.31666C11.4433 7.3354 11.1862 7.35188 10.9289 7.3661C11.0326 9.19553 11.0044 11.0302 10.8443 12.856C10.7975 13.3898 10.3505 13.7993 9.8147 13.7993H7.18532Z" fill="#067AFF"/>
</svg>
