<svg width="19" height="19" viewBox="0 0 19 19" fill="none" xmlns="http://www.w3.org/2000/svg">
<path d="M9.50001 0.645813C4.60999 0.645813 0.645844 4.60996 0.645844 9.49998C0.645844 14.39 4.60999 18.3541 9.50001 18.3541C14.1017 18.3541 17.8829 14.844 18.3133 10.3549C18.3334 10.146 18.2261 9.9455 18.0412 9.84623C17.8562 9.74706 17.6297 9.76852 17.4668 9.90081C16.5713 10.6275 15.4309 11.0625 14.1875 11.0625C11.3111 11.0625 8.97918 8.73061 8.97918 5.85415C8.97918 4.14571 9.80126 2.62939 11.0736 1.6788C11.2418 1.55312 11.318 1.33869 11.267 1.13499C11.2159 0.931292 11.0476 0.778167 10.84 0.746625C10.4027 0.680209 9.95522 0.645813 9.50001 0.645813Z" fill="#D8E1EB"/>
</svg>
