<svg width="85" height="85" viewBox="0 0 85 85" fill="none" xmlns="http://www.w3.org/2000/svg">
<g filter="url(#filter0_di_3207_1686)">
<rect x="15" y="5" width="55" height="55" rx="27.5" fill="#FAFBFC"/>
<rect x="16" y="6" width="53" height="53" rx="26.5" stroke="#FAFBFC" stroke-width="2"/>
</g>
<path fill-rule="evenodd" clip-rule="evenodd" d="M44.9845 36.0894C42.2238 38.3005 38.1827 38.1265 35.6235 35.5673C32.8776 32.8215 32.8776 28.3695 35.6235 25.6236C38.3694 22.8777 42.8214 22.8777 45.5672 25.6236C48.1264 28.1827 48.3004 32.2239 46.0893 34.9845L51.4598 40.355C51.7649 40.6601 51.7649 41.1547 51.4598 41.4598C51.1547 41.7649 50.66 41.7649 50.3549 41.4598L44.9845 36.0894ZM36.7284 34.4624C34.5927 32.3268 34.5927 28.8641 36.7284 26.7285C38.8641 24.5928 42.3267 24.5928 44.4624 26.7285C46.5965 28.8626 46.598 32.3217 44.4671 34.4577C44.4655 34.4593 44.464 34.4608 44.4623 34.4624C44.4607 34.464 44.4592 34.4655 44.4577 34.4671C42.3216 36.5981 38.8625 36.5966 36.7284 34.4624Z" fill="#9FB4CD"/>
<defs>
<filter id="filter0_di_3207_1686" x="0" y="0" width="85" height="85" filterUnits="userSpaceOnUse" color-interpolation-filters="sRGB">
<feFlood flood-opacity="0" result="BackgroundImageFix"/>
<feColorMatrix in="SourceAlpha" type="matrix" values="0 0 0 0 0 0 0 0 0 0 0 0 0 0 0 0 0 0 127 0" result="hardAlpha"/>
<feOffset dy="10"/>
<feGaussianBlur stdDeviation="7.5"/>
<feColorMatrix type="matrix" values="0 0 0 0 0.81 0 0 0 0 0.852 0 0 0 0 0.9 0 0 0 0.3 0"/>
<feBlend mode="normal" in2="BackgroundImageFix" result="effect1_dropShadow_3207_1686"/>
<feBlend mode="normal" in="SourceGraphic" in2="effect1_dropShadow_3207_1686" result="shape"/>
<feColorMatrix in="SourceAlpha" type="matrix" values="0 0 0 0 0 0 0 0 0 0 0 0 0 0 0 0 0 0 127 0" result="hardAlpha"/>
<feOffset dy="11"/>
<feGaussianBlur stdDeviation="6.5"/>
<feComposite in2="hardAlpha" operator="arithmetic" k2="-1" k3="1"/>
<feColorMatrix type="matrix" values="0 0 0 0 0.901961 0 0 0 0 0.92549 0 0 0 0 0.94902 0 0 0 0.4 0"/>
<feBlend mode="normal" in2="shape" result="effect2_innerShadow_3207_1686"/>
</filter>
</defs>
</svg>
