<svg width="23" height="23" viewBox="0 0 23 23" fill="none" xmlns="http://www.w3.org/2000/svg">
<path d="M11.2813 1.5625C11.2813 1.13103 10.9315 0.78125 10.5 0.78125C10.0685 0.78125 9.71876 1.13103 9.71876 1.5625V2.63455C4.67016 3.02884 0.685454 7.21179 0.605402 12.3427C0.600006 12.6889 0.849985 12.9822 1.18596 13.0382C4.01162 13.5092 6.86407 13.7643 9.71876 13.8036V19.7917C9.71876 20.2231 9.36896 20.5729 8.93751 20.5729C8.50605 20.5729 8.15626 20.2231 8.15626 19.7917V19.2708C8.15626 18.8394 7.80648 18.4896 7.37501 18.4896C6.94354 18.4896 6.59376 18.8394 6.59376 19.2708V19.7917C6.59376 21.086 7.64309 22.1354 8.93751 22.1354C10.2319 22.1354 11.2813 21.086 11.2813 19.7917V13.8036C14.1359 13.7643 16.9884 13.5092 19.8141 13.0382C20.15 12.9822 20.4 12.6889 20.3946 12.3427C20.3146 7.21178 16.3299 3.02883 11.2813 2.63455V1.5625Z" fill="#9FB4CD"/>
<circle cx="19.5" cy="3.5" r="3.5" fill="#FF5E61"/>
</svg>
